#!OML:ASF F:\VICON\USERDATA\INSTALL\rory3\rory3.ASF
:FULLY-SPECIFIED
:DEGREES
517
root 4.55828 17.5377 2.56502 4.97454 -8.73471 -6.57095
lowerback 11.2819 -0.893248 2.38554
upperback 4.6168 -0.92237 1.1499
thorax -1.52545 -0.453633 -0.0367297
lowerneck -12.5726 0.0101053 -1.75372
upperneck 36.5405 0.133334 0.60121
head 14.7337 -0.169813 0.565132
rclavicle 6.48038e-014 -6.36111e-015
rhumerus -41.8737 0.00961749 -25.276
rradius 44.6181
rwrist -0.0410383
rhand -13.8027 -42.4475
rfingers 7.12502
rthumb 12.3194 -72.0646
lclavicle 6.48038e-014 -6.36111e-015
lhumerus -36.1548 7.9382 18.6498
lradius 26.4156
lwrist 8.68023
lhand -19.7965 -48.2364
lfingers 7.12502
lthumb 6.53624 -18.3572
rfemur -103.146 2.35814 28.1626
rtibia 107.946
rfoot 49.9054 5.08652
rtoes -4.37604
lfemur -15.0065 1.17391 -22.039
ltibia 25.9419
lfoot -12.8252 4.94601
ltoes 14.3295
518
root 4.55748 17.5399 2.56295 5.00304 -8.69109 -6.71321
lowerback 11.2689 -0.908728 2.5662
upperback 4.62898 -0.923818 1.19512
thorax -1.50726 -0.45278 -0.0914739
lowerneck -12.5512 0.00185758 -1.80424
upperneck 36.5657 0.128516 0.61941
head 14.7408 -0.176494 0.581015
rclavicle -2.08724e-014 4.77083e-015
rhumerus -41.7671 -0.131576 -25.0985
rradius 44.0483
rwrist 0.613138
rhand -15.0132 -41.1356
rfingers 7.12502
rthumb 11.152 -70.8193
lclavicle -2.08724e-014 4.77083e-015
lhumerus -36.219 5.81589 19.9602
lradius 27.8432
lwrist 9.00339
lhand -24.8866 -36.4715
lfingers 7.12502
lthumb 1.62107 -6.49788
rfemur -103.088 2.35405 28.3367
rtibia 107.772
rfoot 50.0574 4.63196
rtoes -3.37665
lfemur -15.052 0.995015 -21.8789
ltibia 26.011
lfoot -12.866 5.10579
ltoes 14.4236
519
root 4.55816 17.5399 2.55997 4.99777 -8.57509 -6.75256
lowerback 11.3168 -0.942815 2.67905
upperback 4.60271 -0.953666 1.22406
thorax -1.56223 -0.467339 -0.120148
lowerneck -12.4112 -0.0287657 -1.90576
upperneck 36.5696 0.09559 0.654714
head 14.7108 -0.199759 0.608251
rclavicle -9.93923e-016 1.39149e-014
rhumerus -41.7139 -0.0628828 -24.9965
rradius 44.2823
rwrist 0.108027
rhand -14.136 -42.0492
rfingers 7.12502
rthumb 11.998 -71.6853
lclavicle -9.93923e-016 1.39149e-014
lhumerus -36.376 5.40374 19.9966
lradius 28.2175
lwrist 9.59586
lhand -24.6635 -35.4565
lfingers 7.12502
lthumb 1.83659 -5.48468
rfemur -103.044 2.21506 28.4388
rtibia 107.621
rfoot 50.1992 4.5204
rtoes -2.15617
lfemur -15.1 0.800847 -21.8332
ltibia 26.0699
lfoot -12.8344 5.16535
ltoes 14.7336
520
root 4.55993 17.539 2.55823 5.01374 -8.50883 -6.81215
lowerback 11.4351 -0.951547 2.81462
upperback 4.51739 -0.942459 1.27092
thorax -1.71611 -0.462787 -0.146481
lowerneck -12.2659 -0.0423013 -1.87848
upperneck 36.5444 0.128769 0.48172
head 14.6654 -0.20449 0.536738
rclavicle 6.36111e-015 -6.75868e-015
rhumerus -41.7385 0.116549 -24.8387
rradius 44.2193
rwrist 0.0334337
rhand -14.4886 -41.7727
rfingers 7.12502
rthumb 11.6579 -71.4284
lclavicle 6.36111e-015 -6.75868e-015
lhumerus -36.5575 4.9728 20.0792
lradius 28.2524
lwrist 9.78432
lhand -24.6678 -34.584
lfingers 7.12502
lthumb 1.83244 -4.61209
rfemur -103.015 2.13798 28.5593
rtibia 107.436
rfoot 50.0698 4.82184
rtoes -2.54311
lfemur -15.1489 0.72559 -21.778
ltibia 26.1303
lfoot -12.8342 5.1614
ltoes 14.8588
521
root 4.56105 17.5348 2.55415 5.01898 -8.48141 -6.8351
lowerback 11.5175 -0.945509 2.89585
upperback 4.49054 -0.920973 1.29544
thorax -1.78903 -0.452491 -0.167897
lowerneck -12.2807 -0.0764529 -1.84452
upperneck 36.4975 0.115581 0.358099
head 14.6473 -0.220913 0.477563
rclavicle -1.96797e-014 -9.93923e-015
rhumerus -41.7223 0.122486 -24.6721
rradius 44.0163
rwrist 0.0929539
rhand -15.1438 -41.0559
rfingers 7.12502
rthumb 11.0261 -70.7463
lclavicle -1.96797e-014 -9.93923e-015
lhumerus -36.5625 4.90333 20.0716
lradius 27.4383
lwrist 8.48245
lhand -26.5777 -39.2332
lfingers 7.12502
lthumb -0.0122366 -9.25347
rfemur -103.03 2.1072 28.6355
rtibia 107.299
rfoot 49.8088 5.16851
rtoes -3.71004
lfemur -15.1984 0.679217 -21.7645
ltibia 26.2057
lfoot -12.8796 5.21179
ltoes 14.394
522
root 4.56272 17.5279 2.54683 4.9554 -8.43263 -6.71768
lowerback 11.6405 -0.966712 2.82662
upperback 4.53698 -0.953055 1.28527
thorax -1.80754 -0.468852 -0.133923
lowerneck -12.4079 -0.123719 -1.99817
upperneck 36.4656 0.0528134 0.467585
head 14.6626 -0.253281 0.540473
rclavicle 1.78906e-014 -1.94809e-014
rhumerus -41.4691 -0.0301438 -24.5103
rradius 43.7671
rwrist 0.0631917
rhand -15.3399 -40.9862
rfingers 7.12502
rthumb 10.8369 -70.6866
lclavicle 1.78906e-014 -1.94809e-014
lhumerus -36.3485 5.59432 19.6914
lradius 27.7934
lwrist 8.93569
lhand -25.7265 -37.2499
lfingers 7.12502
lthumb 0.809915 -7.27172
rfemur -103.067 1.98401 28.5958
rtibia 107.213
rfoot 49.7689 5.22529
rtoes -3.83903
lfemur -15.2348 0.593404 -21.9011
ltibia 26.3225
lfoot -12.8978 5.25201
ltoes 13.7373
523
root 4.55899 17.5235 2.53749 4.89785 -8.50224 -6.7178
lowerback 11.8115 -0.97533 2.72958
upperback 4.57192 -0.968122 1.33842
thorax -1.86215 -0.478014 -0.0198701
lowerneck -12.5393 -0.112936 -2.15251
upperneck 36.4868 0.0924046 0.532027
head 14.7026 -0.249322 0.601083
rclavicle -5.98342e-014 2.74323e-014
rhumerus -41.0307 -0.0697418 -24.3827
rradius 43.3789
rwrist -0.0325974
rhand -15.6591 -40.8373
rfingers 7.12502
rthumb 10.529 -70.5535
lclavicle -5.98342e-014 2.74323e-014
lhumerus -36.3572 5.91076 19.4796
lradius 27.9071
lwrist 8.8925
lhand -25.4505 -35.4985
lfingers 7.12502
lthumb 1.07648 -5.52144
rfemur -103.008 2.09123 28.6731
rtibia 107.003
rfoot 50.0239 4.73463
rtoes -3.08557
lfemur -15.2886 0.635463 -21.8774
ltibia 26.4537
lfoot -12.8314 5.24307
ltoes 14.3517
